<svg xmlns="http://www.w3.org/2000/svg" width="512" height="512" viewBox="0 0 512 512" role="img" aria-label="Egret app icon">
  <title>Egret</title>
  <defs>
    <linearGradient id="tile" x1="0" y1="0" x2="1" y2="1">
      <stop offset="0" stop-color="#173A54"/><stop offset="1" stop-color="#0B1B2B"/>
    </linearGradient>
    <radialGradient id="glow" cx="0.55" cy="0.78" r="0.72">
      <stop offset="0" stop-color="#2DD4BF" stop-opacity="0.16"/><stop offset="1" stop-color="#2DD4BF" stop-opacity="0"/>
    </radialGradient>
    <linearGradient id="egress" gradientUnits="userSpaceOnUse" x1="34" y1="214" x2="196" y2="214">
      <stop offset="0" stop-color="#2DD4BF" stop-opacity="0.5"/><stop offset="0.35" stop-color="#2DD4BF"/><stop offset="1" stop-color="#5FEAD9"/>
    </linearGradient>
  </defs>
  <rect x="0" y="0" width="512" height="512" rx="112" fill="url(#tile)"/>
  <rect x="0" y="0" width="512" height="512" rx="112" fill="url(#glow)"/>
  <rect x="4" y="4" width="504" height="504" rx="108" fill="none" stroke="#2DD4BF" stroke-opacity="0.16" stroke-width="2"/>
  <g transform="translate(-14,-6) scale(1.9)">
  <!-- egress line + endpoint node the egret flies toward -->
  <line x1="34" y1="214" x2="196" y2="214" stroke="url(#egress)" stroke-width="9" stroke-linecap="round"/>
  <circle cx="196" cy="214" r="9" fill="#5FEAD9"/>
  <!-- legs trailing -->
  <g stroke="#F5F7FA" stroke-width="5" stroke-linecap="round">
    <path d="M104 160 L82 186"/>
    <path d="M112 162 L94 190"/>
  </g>
  <!-- tail -->
  <path d="M98 152 C84 155 72 156 62 154 C74 148 86 148 100 150 Z" fill="#F5F7FA"/>
  <!-- body -->
  <ellipse cx="118" cy="152" rx="27" ry="14" fill="#F5F7FA"/>
  <!-- upswept wing -->
  <path d="M120 146 C124 108 150 80 188 66 C172 100 152 126 140 150 C132 152 124 150 120 146 Z" fill="#F5F7FA"/>
  <!-- neck + head + dagger beak -->
  <path d="M138 150 C160 150 158 134 176 132" fill="none" stroke="#F5F7FA" stroke-width="12" stroke-linecap="round"/>
  <circle cx="180" cy="131" r="10" fill="#F5F7FA"/>
  <path d="M189 126 L222 130 L189 138 Z" fill="#F5B54B"/>
  </g>
</svg>
