<svg xmlns="http://www.w3.org/2000/svg" width="256" height="256" viewBox="0 0 256 256" role="img" aria-label="Egret icon">
  <title>Egret</title>
  <defs>
    <linearGradient id="bg" x1="0" y1="0" x2="1" y2="1">
      <stop offset="0" stop-color="#13293D"/><stop offset="1" stop-color="#0B1B2B"/>
    </linearGradient>
    <linearGradient id="egress" gradientUnits="userSpaceOnUse" x1="34" y1="214" x2="196" y2="214">
      <stop offset="0" stop-color="#2DD4BF" stop-opacity="0.30"/><stop offset="0.45" stop-color="#2DD4BF"/><stop offset="1" stop-color="#2DD4BF"/>
    </linearGradient>
  </defs>
  <rect x="0" y="0" width="256" height="256" rx="56" fill="url(#bg)"/>
  <!-- egress line + endpoint node the egret flies toward -->
  <line x1="34" y1="214" x2="196" y2="214" stroke="url(#egress)" stroke-width="9" stroke-linecap="round"/>
  <circle cx="196" cy="214" r="8" fill="#2DD4BF"/>
  <!-- legs trailing -->
  <g stroke="#F5F7FA" stroke-width="5" stroke-linecap="round">
    <path d="M104 160 L82 186"/>
    <path d="M112 162 L94 190"/>
  </g>
  <!-- tail -->
  <path d="M98 152 C84 155 72 156 62 154 C74 148 86 148 100 150 Z" fill="#F5F7FA"/>
  <!-- body -->
  <ellipse cx="118" cy="152" rx="27" ry="14" fill="#F5F7FA"/>
  <!-- upswept wing -->
  <path d="M120 146 C124 108 150 80 188 66 C172 100 152 126 140 150 C132 152 124 150 120 146 Z" fill="#F5F7FA"/>
  <!-- neck + head + dagger beak -->
  <path d="M138 150 C160 150 158 134 176 132" fill="none" stroke="#F5F7FA" stroke-width="12" stroke-linecap="round"/>
  <circle cx="180" cy="131" r="10" fill="#F5F7FA"/>
  <path d="M189 126 L222 130 L189 138 Z" fill="#F5B54B"/>
</svg>
